HIERARCHY
ROOT Pelvis
{
	OFFSET 0.000000 0.000000 0.000000
	CHANNELS 6 Xposition Yposition Zposition Xrotation Yrotation Zrotation
	JOINT LeftUpLeg_virtual
	{
		OFFSET 0.000000 0.000000 0.000000
		CHANNELS 3 Xrotation Yrotation Zrotation
		JOINT LeftUpLeg
		{
			OFFSET 18.735201 -5.666702 -4.541200
			CHANNELS 3 Xrotation Yrotation Zrotation
			JOINT LeftLeg
			{
				OFFSET -0.021200 -31.938179 0.493100
				CHANNELS 3 Xrotation Yrotation Zrotation
				JOINT LeftFoot
				{
					OFFSET 0.021200 -31.938179 -4.336299
					CHANNELS 3 Xrotation Yrotation Zrotation
					JOINT LeftToeBase
					{
						OFFSET 0.943001 -26.722000 15.023500
						CHANNELS 3 Xrotation Yrotation Zrotation
						End Site
						{
							OFFSET 0 0 0
						}
					}
				}
			}
		}
	}
	JOINT RightUpLeg_virtual
	{
		OFFSET 0.000000 0.000000 0.000000
		CHANNELS 3 Xrotation Yrotation Zrotation
		JOINT RightUpLeg
		{
			OFFSET -18.735201 -5.666702 -4.541200
			CHANNELS 3 Xrotation Yrotation Zrotation
			JOINT RightLeg
			{
				OFFSET 0.018946 -31.938133 0.493100
				CHANNELS 3 Xrotation Yrotation Zrotation
				JOINT RightFoot
				{
					OFFSET -0.018946 -31.938126 -4.336299
					CHANNELS 3 Xrotation Yrotation Zrotation
					JOINT RightToeBase
					{
						OFFSET -0.943001 -26.722004 15.023500
						CHANNELS 3 Xrotation Yrotation Zrotation
						End Site
						{
							OFFSET 0 0 0
						}
					}
				}
			}
		}
	}
	JOINT Hips_virtual
	{
		OFFSET 0.000000 0.000000 0.000000
		CHANNELS 3 Xrotation Yrotation Zrotation
		JOINT Hips
		{
			OFFSET -0.000000 -0.000000 -0.000000
			CHANNELS 3 Xrotation Yrotation Zrotation
			JOINT Spine
			{
				OFFSET 0.000000 10.199997 -0.299500
				CHANNELS 3 Xrotation Yrotation Zrotation
				JOINT Spine1
				{
					OFFSET 0.000000 11.900002 -1.516600
					CHANNELS 3 Xrotation Yrotation Zrotation
					JOINT Spine2
					{
						OFFSET 0.000000 13.600006 -2.842500
						CHANNELS 3 Xrotation Yrotation Zrotation
						JOINT Neck_virtual
						{
							OFFSET 0.000000 0.000000 0.000000
							CHANNELS 3 Xrotation Yrotation Zrotation
							JOINT Neck
							{
								OFFSET 0.000000 9.624100 -2.890100
								CHANNELS 3 Xrotation Yrotation Zrotation
								JOINT Head
								{
									OFFSET 0.000000 14.068802 -1.351900
									CHANNELS 3 Xrotation Yrotation Zrotation
									End Site
									{
										OFFSET 0 0 0
									}
								}
							}
						}
						JOINT LeftShoulder_virtual
						{
							OFFSET 0.000000 0.000000 0.000000
							CHANNELS 3 Xrotation Yrotation Zrotation
							JOINT LeftShoulder
							{
								OFFSET 15.263000 10.923401 -0.547700
								CHANNELS 3 Xrotation Yrotation Zrotation
								JOINT LeftArm
								{
									OFFSET 25.438599 -2.830597 -13.032500
									CHANNELS 3 Xrotation Yrotation Zrotation
									JOINT LeftForeArm
									{
										OFFSET 29.960503 0.000000 0.000000
										CHANNELS 3 Xrotation Yrotation Zrotation
										JOINT LeftHand
										{
											OFFSET 27.849251 0.000000 0.000000
											CHANNELS 3 Xrotation Yrotation Zrotation
											End Site
											{
												OFFSET 0 0 0
											}
										}
									}
								}
							}
						}
						JOINT RightShoulder_virtual
						{
							OFFSET 0.000000 0.000000 0.000000
							CHANNELS 3 Xrotation Yrotation Zrotation
							JOINT RightShoulder
							{
								OFFSET -15.263000 10.923401 -0.547700
								CHANNELS 3 Xrotation Yrotation Zrotation
								JOINT RightArm
								{
									OFFSET -25.438599 -2.830597 -13.032500
									CHANNELS 3 Xrotation Yrotation Zrotation
									JOINT RightForeArm
									{
										OFFSET -29.960503 0.000000 0.000000
										CHANNELS 3 Xrotation Yrotation Zrotation
										JOINT RightHand
										{
											OFFSET -27.849251 0.000000 0.000000
											CHANNELS 3 Xrotation Yrotation Zrotation
											End Site
											{
												OFFSET 0 0 0
											}
										}
									}
								}
							}
						}
					}
				}
			}
		}
	}
}
MOTION
Frames: 8
Frame Time: 0.03333333
1.401844 93.154007 4.196854 0.000000 0.000000 0.000000 -0.019523 -0.060228 -3.996488 -21.805507 12.460166 16.939504 29.339894 9.076000 3.838924 -5.649955 7.341909 -13.609499 0.000000 0.000000 0.000000 -1.029522 1.464010 -4.143812 4.125440 -3.712264 11.581802 5.519782 -4.955996 3.181506 -11.801160 2.382268 -6.763922 0.000000 0.000000 0.000000 -0.820316 0.311336 -3.912253 -0.322366 0.157494 -0.606207 0.307073 -0.855285 2.634271 1.014341 -0.372795 6.049035 0.000000 0.000000 0.000000 0.430507 0.816378 5.608265 0.184865 -0.687474 -0.666211 0.000000 0.000000 0.000000 0.344525 0.983633 5.370883 2.474967 -14.245977 -7.202331 3.842511 3.645529 -83.747203 1.774335 -16.981776 0.733468 0.000000 0.000000 0.000000 0.533880 0.900858 5.501897 4.482656 3.454091 6.374014 -0.188553 4.290782 66.525141 0.205243 20.326298 -0.796020 0.000000 0.000000 0.000000 
1.307250 93.150803 4.236782 0.000000 0.000000 0.000000 -0.008888 0.050523 -4.031462 -21.825709 12.315139 17.001480 29.237714 8.979204 3.890434 -5.608481 7.254216 -13.940777 0.000000 0.000000 0.000000 -1.006975 1.577567 -4.194488 4.160370 -3.723181 11.700277 5.465955 -5.032222 3.187715 -11.920822 2.338073 -6.746668 0.000000 0.000000 0.000000 -0.791621 0.419243 -3.970427 -0.326180 0.184727 -0.652133 0.296457 -0.859262 2.632760 1.070799 -0.339136 6.020612 0.000000 0.000000 0.000000 0.480495 0.846440 5.573485 0.173127 -0.660592 -0.660181 0.000000 0.000000 0.000000 0.396377 1.016504 5.360251 2.459838 -14.406766 -7.179128 3.669863 3.496389 -83.555494 1.738443 -17.168423 0.753659 0.000000 0.000000 0.000000 0.585046 0.932234 5.481959 4.504319 3.509280 6.413941 -0.265984 4.658878 66.628700 0.242114 20.334498 -0.814594 0.000000 0.000000 0.000000 
1.115335 93.152504 4.277813 0.000000 0.000000 0.000000 0.037703 0.248892 -4.152766 -22.008591 12.136814 17.250978 29.252891 8.814511 3.959088 -5.489058 7.117474 -14.406676 0.000000 0.000000 0.000000 -0.964988 1.767367 -4.320491 4.155420 -3.656593 11.975173 5.438043 -5.107462 3.238879 -11.914232 2.243509 -6.658734 0.000000 0.000000 0.000000 -0.739593 0.604769 -4.116755 -0.360617 0.148814 -0.682177 0.269399 -0.881825 2.636339 1.177829 -0.300482 5.955039 0.000000 0.000000 0.000000 0.586896 0.880100 5.504610 0.145400 -0.650453 -0.618814 0.000000 0.000000 0.000000 0.490939 1.053203 5.308255 2.458513 -14.510445 -7.130750 3.358965 3.211023 -83.157451 1.666805 -17.352048 0.728526 0.000000 0.000000 0.000000 0.682886 0.959945 5.428266 4.458509 3.561171 6.672694 -0.156006 5.463308 66.499876 0.290474 20.204441 -0.827364 0.000000 0.000000 0.000000 
0.860441 93.152206 4.312366 0.000000 0.000000 0.000000 0.110507 0.462651 -4.346828 -22.328469 11.918845 17.630747 29.435366 8.617948 4.067529 -5.359839 6.995668 -14.872537 0.000000 0.000000 0.000000 -0.903951 1.988005 -4.513588 4.108922 -3.472592 12.365389 5.426901 -5.172465 3.319674 -11.743891 2.098358 -6.544573 0.000000 0.000000 0.000000 -0.680173 0.818693 -4.330981 -0.390693 0.087666 -0.672146 0.227142 -0.927627 2.656150 1.334380 -0.266191 5.861919 0.000000 0.000000 0.000000 0.742026 0.907332 5.410460 0.102779 -0.655557 -0.544179 0.000000 0.000000 0.000000 0.626371 1.082876 5.221157 2.469148 -14.560281 -7.074192 2.923304 2.832081 -82.594390 1.570270 -17.468079 0.661287 0.000000 0.000000 0.000000 0.832718 0.980286 5.346585 4.349916 3.602173 7.123994 0.130746 6.577273 66.134850 0.355390 19.945886 -0.833376 0.000000 0.000000 0.000000 
0.569063 93.141037 4.334572 0.000000 0.000000 0.000000 0.182026 0.639113 -4.592108 -22.746224 11.651854 18.065478 29.764988 8.404024 4.223557 -5.294667 6.889882 -15.301985 0.000000 0.000000 0.000000 -0.834533 2.165593 -4.760524 4.002877 -3.194085 12.832118 5.459978 -5.241231 3.416694 -11.471810 1.894631 -6.436374 0.000000 0.000000 0.000000 -0.606379 1.020555 -4.590497 -0.413223 0.014636 -0.644409 0.179794 -0.991811 2.691022 1.536062 -0.244972 5.743796 0.000000 0.000000 0.000000 0.939338 0.915709 5.297477 0.045351 -0.671008 -0.439986 0.000000 0.000000 0.000000 0.792978 1.091319 5.106309 2.490510 -14.578972 -7.008827 2.349775 2.355430 -81.920633 1.460157 -17.511640 0.565678 0.000000 0.000000 0.000000 1.024715 0.984306 5.240267 4.189485 3.637418 7.724267 0.524854 7.916485 65.603147 0.436813 19.550120 -0.825578 0.000000 0.000000 0.000000 
0.263829 93.111755 4.345100 0.000000 0.000000 0.000000 0.243300 0.737310 -4.866536 -23.240945 11.348259 18.505405 30.215264 8.189334 4.405069 -5.294342 6.792539 -15.710835 0.000000 0.000000 0.000000 -0.766588 2.255792 -5.039062 3.791080 -2.870975 13.337993 5.587642 -5.328831 3.519890 -11.201070 1.638873 -6.360556 0.000000 0.000000 0.000000 -0.533707 1.156045 -4.874906 -0.427875 -0.014397 -0.607011 0.133101 -1.071070 2.731010 1.776717 -0.240489 5.604147 0.000000 0.000000 0.000000 1.160633 0.898848 5.172340 -0.026159 -0.694003 -0.312799 0.000000 0.000000 0.000000 0.986256 1.072663 4.970909 2.518041 -14.590761 -6.944229 1.675791 1.807648 -81.180377 1.355889 -17.540737 0.456426 0.000000 0.000000 0.000000 1.250638 0.967924 5.113521 3.992014 3.676115 8.410716 0.940933 9.372831 64.982181 0.522555 18.967779 -0.810848 0.000000 0.000000 0.000000 
-0.043524 93.053566 4.372227 0.000000 0.000000 0.000000 0.299641 0.744930 -5.149427 -23.791593 11.030475 18.922271 30.802961 7.980758 4.595279 -5.390960 6.720649 -16.104643 0.000000 0.000000 0.000000 -0.713968 2.257234 -5.334342 3.507685 -2.512402 13.858829 5.803064 -5.414522 3.620460 -10.992089 1.338581 -6.317055 0.000000 0.000000 0.000000 -0.468732 1.210271 -5.169593 -0.453639 0.005733 -0.585833 0.091284 -1.160772 2.767153 2.046613 -0.253636 5.444866 0.000000 0.000000 0.000000 1.386796 0.857727 5.035920 -0.115943 -0.718810 -0.169643 0.000000 0.000000 0.000000 1.196250 1.024942 4.819615 2.552303 -14.614371 -6.870778 0.953887 1.214453 -80.385924 1.272311 -17.631739 0.343242 0.000000 0.000000 0.000000 1.494591 0.934838 4.970899 3.761406 3.735478 9.141570 1.345014 10.875832 64.294073 0.593061 18.209872 -0.783328 0.000000 0.000000 0.000000 
-0.346403 92.975647 4.440296 0.000000 0.000000 0.000000 0.334029 0.667927 -5.428180 -24.340151 10.725167 19.308221 31.490860 7.776485 4.791029 -5.640217 6.701948 -16.466869 0.000000 0.000000 0.000000 -0.669365 2.172086 -5.635925 3.206504 -2.106925 14.378899 6.046931 -5.463485 3.704642 -10.892793 1.007551 -6.329781 0.000000 0.000000 0.000000 -0.420956 1.149199 -5.471802 -0.483870 0.049885 -0.582515 0.057630 -1.252153 2.791232 2.325890 -0.281196 5.271115 0.000000 0.000000 0.000000 1.601835 0.800400 4.888458 -0.223446 -0.739746 -0.016208 0.000000 0.000000 0.000000 1.410899 0.958639 4.658837 2.594306 -14.648676 -6.777037 0.230935 0.649709 -79.574443 1.226607 -17.783395 0.248288 0.000000 0.000000 0.000000 1.739719 0.886810 4.813037 3.511142 3.817116 9.887097 1.764201 12.364732 63.564015 0.640347 17.349628 -0.737511 0.000000 0.000000 0.000000 
